<?xml version="1.0" encoding="UTF-8" standalone="no"?>
<svg
   xmlns:dc="http://purl.org/dc/elements/1.1/"
   xmlns:cc="http://creativecommons.org/ns#"
   xmlns:rdf="http://www.w3.org/1999/02/22-rdf-syntax-ns#"
   xmlns:svg="http://www.w3.org/2000/svg"
   xmlns="http://www.w3.org/2000/svg"
   xmlns:sodipodi="http://sodipodi.sourceforge.net/DTD/sodipodi-0.dtd"
   xmlns:inkscape="http://www.inkscape.org/namespaces/inkscape"
   width="22"
   height="26"
   viewBox="0 0 22 26"
   fill="none"
   version="1.1"
   id="svg6"
   sodipodi:docname="Group.svg"
   inkscape:version="0.92.5 (2060ec1f9f, 2020-04-08)">
  <metadata
     id="metadata12">
    <rdf:RDF>
      <cc:Work
         rdf:about="">
        <dc:format>image/svg+xml</dc:format>
        <dc:type
           rdf:resource="http://purl.org/dc/dcmitype/StillImage" />
      </cc:Work>
    </rdf:RDF>
  </metadata>
  <defs
     id="defs10" />
  <sodipodi:namedview
     pagecolor="#ffffff"
     bordercolor="#666666"
     borderopacity="1"
     objecttolerance="10"
     gridtolerance="10"
     guidetolerance="10"
     inkscape:pageopacity="0"
     inkscape:pageshadow="2"
     inkscape:window-width="1920"
     inkscape:window-height="1016"
     id="namedview8"
     showgrid="false"
     inkscape:zoom="9.0769231"
     inkscape:cx="11"
     inkscape:cy="12.118644"
     inkscape:window-x="1366"
     inkscape:window-y="27"
     inkscape:window-maximized="1"
     inkscape:current-layer="svg6" />
  <g
     style="fill:none"
     id="g30"
     transform="matrix(0.77373,0,0,0.78119199,2.5453642,2.7398445)">
    <path
       id="path16"
       d="m 11.0061,5.97286 c 1.5083,0 2.7334,-1.24751 2.7334,-2.7833 0,-1.53579 -1.2251,-2.78331 -2.7334,-2.78331 -1.50824,0 -2.73339,1.24752 -2.73339,2.78331 0,1.53579 1.22515,2.7833 2.73339,2.7833 z"
       inkscape:connector-curvature="0"
       style="fill:#ffffff" />
    <path
       id="path18"
       d="M 19.5967,6.01263 19.5723,6.0176 19.5528,6.02257 C 19.504,6.03748 19.4551,6.05239 19.4063,6.0673 18.4984,6.34066 14.0908,7.60309 10.9816,7.60309 8.09682,7.60309 4.08456,6.50965 2.80083,6.13689 2.67392,6.08719 2.54213,6.04245 2.41034,6.00766 1.48293,5.75915 0.848389,6.7184 0.848389,7.59315 c 0,0.86979 0.766331,1.28231 1.537551,1.58052 v 0.01491 l 4.6468,1.47612 c 0.47347,0.1839 0.60038,0.3728 0.66383,0.5368 0.20013,0.5269 0.03905,1.5706 -0.01464,1.9334 l -0.2831,2.2366 -1.56684,8.7624 c -0.00488,0.0249 -0.00976,0.0497 -0.01464,0.0746 l -0.00976,0.0646 c -0.11227,0.8002 0.4637,1.5805 1.56195,1.5805 0.95669,0 1.38135,-0.6709 1.56195,-1.5855 0,0 1.36671,-7.833 2.05011,-7.833 0.6833,0 2.0891,7.833 2.0891,7.833 0.1854,0.9146 0.6052,1.5855 1.5619,1.5855 1.0983,0 1.6791,-0.7803 1.562,-1.5855 -0.0098,-0.0695 -0.0244,-0.1342 -0.0391,-0.2037 l -1.5863,-8.683 -0.2831,-2.2365 c -0.205,-1.3022 -0.0391,-1.7346 0.0146,-1.834 0,0 0.0049,-0.005 0.0049,-0.01 0.0537,-0.0994 0.2928,-0.323 0.8542,-0.5368 l 4.3588,-1.55067 c 0.0244,-0.00497 0.0537,-0.01491 0.0781,-0.02485 0.781,-0.29821 1.5619,-0.71073 1.5619,-1.58549 0,-0.87475 -0.6345,-1.83897 -1.5619,-1.59046 z"
       inkscape:connector-curvature="0"
       style="fill:#ffffff" />
  </g>
</svg>
